<svg width="20" height="20" viewBox="0 0 20 20" fill="none" xmlns="http://www.w3.org/2000/svg">
<path d="M9.49787 7.51702C7.93707 7.51702 6.66333 8.79076 6.66333 10.3516C6.66333 11.9124 7.93707 13.1861 9.49787 13.1861C11.0587 13.1861 12.3324 11.9124 12.3324 10.3516C12.3324 8.79076 11.0587 7.51702 9.49787 7.51702ZM17.9994 10.3516C17.9994 9.17777 18.01 8.01461 17.9441 6.84294C17.8782 5.48202 17.5677 4.27421 16.5725 3.27903C15.5752 2.28174 14.3695 1.9734 13.0086 1.90748C11.8348 1.84156 10.6717 1.85219 9.5 1.85219C8.32621 1.85219 7.16305 1.84156 5.99138 1.90748C4.63046 1.9734 3.42264 2.28386 2.42747 3.27903C1.43017 4.27633 1.12184 5.48202 1.05592 6.84294C0.99 8.01673 1.00063 9.1799 1.00063 10.3516C1.00063 11.5232 0.99 12.6885 1.05592 13.8602C1.12184 15.2211 1.4323 16.4289 2.42747 17.4241C3.42477 18.4214 4.63046 18.7297 5.99138 18.7956C7.16517 18.8616 8.32833 18.8509 9.5 18.8509C10.6738 18.8509 11.837 18.8616 13.0086 18.7956C14.3695 18.7297 15.5774 18.4193 16.5725 17.4241C17.5698 16.4268 17.8782 15.2211 17.9441 13.8602C18.0121 12.6885 17.9994 11.5254 17.9994 10.3516ZM9.49787 14.7129C7.08437 14.7129 5.13655 12.7651 5.13655 10.3516C5.13655 7.93806 7.08437 5.99024 9.49787 5.99024C11.9114 5.99024 13.8592 7.93806 13.8592 10.3516C13.8592 12.7651 11.9114 14.7129 9.49787 14.7129ZM14.0378 6.83018C13.4743 6.83018 13.0193 6.37513 13.0193 5.81162C13.0193 5.24811 13.4743 4.79306 14.0378 4.79306C14.6013 4.79306 15.0564 5.24811 15.0564 5.81162C15.0565 5.94543 15.0303 6.07795 14.9792 6.20161C14.9281 6.32526 14.853 6.43761 14.7584 6.53223C14.6638 6.62684 14.5515 6.70186 14.4278 6.75299C14.3041 6.80412 14.1716 6.83035 14.0378 6.83018Z" fill="white"/>
</svg>
