<svg width="153" height="52" viewBox="0 0 153 52" fill="none" xmlns="http://www.w3.org/2000/svg">
<rect y="5.5166" width="40" height="40.1354" rx="11.1782" fill="#3692FF"/>
<path d="M19.3139 16.6912C19.8132 18.4167 18.493 20.318 16.9797 20.7589C15.4663 21.1998 13.3989 20.2854 12.8996 18.5599C12.4003 16.8344 13.4485 14.4436 14.9618 14.0028C16.9797 13.4149 18.8146 14.9657 19.3139 16.6912Z" fill="#222327"/>
<path d="M20.1461 16.6912C19.6468 18.4167 20.967 20.318 22.4803 20.7589C23.9936 21.1998 26.0611 20.2854 26.5604 18.5599C27.0597 16.8344 26.0115 14.4436 24.4982 14.0028C22.4803 13.4149 20.6454 14.9657 20.1461 16.6912Z" fill="#222327"/>
<path d="M29.5172 29.2964C29.5172 33.6852 25.2138 35.3166 19.3437 35.3166C13.4736 35.3166 9.26758 33.6852 9.26758 29.2964C9.26758 24.1912 13.4736 19.6641 19.3437 19.6641C25.2138 19.6641 29.5172 23.806 29.5172 29.2964Z" fill="#F3D6DD"/>
<path d="M17.4003 28.4299C17.4003 29.8673 16.4777 31.4441 15.1884 31.4441C13.8991 31.4441 11.8164 30.2729 11.8164 28.1258C11.8164 26.1087 14.0664 25.3914 16.3913 25.7597C17.8163 25.9855 17.4003 26.9925 17.4003 28.4299Z" fill="#222327"/>
<path d="M16.3221 28.2849C16.3221 28.5005 16.2573 28.6753 15.933 28.6753C15.6088 28.6753 15.5439 28.5005 15.5439 28.2849C15.5439 28.0693 15.6736 27.8945 15.933 27.8945C16.1924 27.8945 16.3221 28.0693 16.3221 28.2849Z" fill="white"/>
<path d="M21.3223 28.4299C21.3223 29.8673 22.2449 31.4441 23.5342 31.4441C24.8235 31.4441 26.9062 30.2729 26.9062 28.1258C26.9062 26.1087 24.6563 25.3914 22.3313 25.7597C20.9064 25.9855 21.3223 26.9925 21.3223 28.4299Z" fill="#222327"/>
<path d="M22.4015 28.2849C22.4015 28.5005 22.4664 28.6753 22.7906 28.6753C23.1148 28.6753 23.1797 28.5005 23.1797 28.2849C23.1797 28.0693 23.05 27.8945 22.7906 27.8945C22.5312 27.8945 22.4015 28.0693 22.4015 28.2849Z" fill="white"/>
<path d="M17.8754 30.5096C17.7969 30.395 17.6404 30.3657 17.5258 30.4442C17.4112 30.5227 17.382 30.6793 17.4605 30.7939L17.8754 30.5096ZM19.3179 30.2002L19.5559 30.1187C19.521 30.017 19.4254 29.9487 19.3179 29.9487C19.2104 29.9487 19.1148 30.017 19.08 30.1187L19.3179 30.2002ZM21.1754 30.7939C21.2539 30.6793 21.2246 30.5227 21.1101 30.4442C20.9955 30.3657 20.8389 30.395 20.7604 30.5096L21.1754 30.7939ZM17.4605 30.7939C17.53 30.8953 17.6562 31.0312 17.8254 31.1435C17.9962 31.2568 18.2244 31.3547 18.493 31.3547V30.8517C18.349 30.8517 18.2163 30.7992 18.1035 30.7243C17.9891 30.6485 17.9091 30.5586 17.8754 30.5096L17.4605 30.7939ZM18.493 31.3547C18.8235 31.3547 19.0693 31.119 19.2223 30.916C19.3838 30.7016 19.498 30.4506 19.5559 30.2817L19.08 30.1187C19.0347 30.2508 18.9427 30.4513 18.8206 30.6132C18.69 30.7865 18.5749 30.8517 18.493 30.8517V31.3547ZM19.08 30.2817C19.1379 30.4506 19.252 30.7016 19.4136 30.916C19.5666 31.119 19.8124 31.3547 20.1429 31.3547V30.8517C20.061 30.8517 19.9459 30.7865 19.8153 30.6132C19.6932 30.4513 19.6011 30.2508 19.5559 30.1187L19.08 30.2817ZM20.1429 31.3547C20.4115 31.3547 20.6397 31.2568 20.8105 31.1435C20.9797 31.0312 21.1059 30.8953 21.1754 30.7939L20.7604 30.5096C20.7268 30.5586 20.6467 30.6485 20.5324 30.7243C20.4196 30.7992 20.2868 30.8517 20.1429 30.8517V31.3547Z" fill="#222327"/>
<path d="M20.6913 29.9678C20.6913 30.177 19.7493 30.4433 19.4322 30.527C19.3645 30.5449 19.2946 30.5449 19.2268 30.527C18.9098 30.4433 17.9678 30.177 17.9678 29.9678C17.9678 29.7162 18.7207 29.4473 19.3295 29.4473C19.9384 29.4473 20.6913 29.7162 20.6913 29.9678Z" fill="#222327"/>
<path d="M19.1655 23.2761C15.3813 23.2761 13.9906 21.9466 13.7656 21.169L15.5656 19.2124L19.4655 18.5352L24.8654 21.169C24.5404 21.7961 22.9539 23.2761 19.1655 23.2761Z" fill="#222327"/>
<path fill-rule="evenodd" clip-rule="evenodd" d="M19.6898 37.4989C27.5098 37.4989 33.2427 35.295 33.2427 29.3657C33.2427 21.9482 27.5098 16.3525 19.6898 16.3525C11.8698 16.3525 6.2666 22.4687 6.2666 29.3657C6.2666 35.295 11.8698 37.4989 19.6898 37.4989ZM19.3823 35.2218C25.1345 35.2218 29.3515 33.6079 29.3515 29.2658C29.3515 23.8339 25.1345 19.7362 19.3823 19.7362C13.6301 19.7362 9.50854 24.2151 9.50854 29.2658C9.50854 33.6079 13.6301 35.2218 19.3823 35.2218Z" fill="white"/>
<path d="M70.8926 22.6522H73.9685V26.2408H70.8926V33.5206H66.2786V29.0092C62.9976 29.6757 59.7422 30.0345 55.0001 30.0345H49.6171V26.5228H51.6678V19.243H50.1298V15.7825H64.2792V19.243H62.7413V26.1383C63.9973 25.9845 65.1764 25.8051 66.2786 25.6V15.5262H70.8926V22.6522ZM52.1548 39.6213V32.0083H56.8713V36.0583H71.4052V39.6213H52.1548ZM56.2817 26.5228C56.9225 26.4972 57.5377 26.4972 58.1273 26.4715V19.243H56.2817V26.5228ZM99.6016 24.4465V28.0351H96.5256V39.6213H91.9117V35.5969C88.6306 36.5453 85.3752 37.0836 80.6331 37.0836H76.0192V16.2952H89.1433V19.7557H80.6331V33.5719C85.324 33.5719 88.6563 33.1105 91.9117 32.1877V15.5262H96.5256V24.4465H99.6016ZM125.235 24.4465V28.0351H122.159V39.6213H117.545V15.5262H122.159V24.4465H125.235ZM101.652 37.0836V16.2952H115.058V37.0836H101.652ZM106.266 33.5719H110.496V19.8069H106.266V33.5719ZM144.844 15.5262H149.33V29.4193H144.844V15.5262ZM125.747 26.6766C128.746 26.0614 131.002 25.113 132.258 23.9082L127.285 24.2158V20.8835H133.335V19.243H127.798V15.7825H137.821V20.3965H139.282V15.6544H143.639V29.4193H139.282V23.9851H137.154C135.795 26.6253 132.386 28.8041 127.208 30.1114L125.747 26.6766ZM128.541 35.9558C134.873 35.7251 136.718 34.4178 136.718 32.1877V30.2396H141.332V32.5978C141.332 33.213 141.255 33.8026 141.102 34.3409C144.075 34.5459 147.023 34.9561 149.33 35.4944L148.099 39.6213C145.459 38.6985 141.768 37.8013 138.795 37.3143C136.667 38.7498 133.258 39.4419 129.028 39.6213L128.541 35.9558Z" fill="#3692FF"/>
</svg>
